<svg width="164" height="48" viewBox="0 0 164 48" fill="none" xmlns="http://www.w3.org/2000/svg">
<path d="M52.8477 27.7148C52.9961 28.3008 53.2148 28.793 53.5039 29.1914C53.8008 29.582 54.1328 29.8984 54.5 30.1406C54.8672 30.3828 55.2539 30.5586 55.6602 30.668C56.0742 30.7695 56.4766 30.8203 56.8672 30.8203C57.4766 30.8203 58.0195 30.7695 58.4961 30.668C58.9727 30.5586 59.3789 30.4297 59.7148 30.2812C60.0586 30.125 60.3359 29.9648 60.5469 29.8008C60.7578 29.6367 60.9062 29.4922 60.9922 29.3672C61.0703 29.25 61.1562 29.1406 61.25 29.0391C61.3516 28.9297 61.457 28.8359 61.5664 28.7578C61.6836 28.6719 61.7969 28.6055 61.9062 28.5586C62.0234 28.5117 62.1328 28.4883 62.2344 28.4883C62.625 28.4883 62.9258 28.6055 63.1367 28.8398C63.3555 29.0664 63.4648 29.375 63.4648 29.7656C63.4648 29.9141 63.4102 30.1016 63.3008 30.3281C63.1914 30.5547 62.9883 30.8047 62.6914 31.0781C62.3633 31.3828 61.9961 31.6719 61.5898 31.9453C61.1914 32.2188 60.75 32.4609 60.2656 32.6719C59.7812 32.875 59.2539 33.0352 58.6836 33.1523C58.1211 33.2773 57.5117 33.3398 56.8555 33.3398C56.082 33.3398 55.375 33.2344 54.7344 33.0234C54.0938 32.8203 53.5195 32.543 53.0117 32.1914C52.5039 31.832 52.0625 31.418 51.6875 30.9492C51.3125 30.4805 51 29.9805 50.75 29.4492C50.5 28.918 50.3125 28.3711 50.1875 27.8086C50.0625 27.2461 50 26.6992 50 26.168C50 25.0117 50.1875 23.9688 50.5625 23.0391C50.9375 22.1016 51.4531 21.3008 52.1094 20.6367C52.7656 19.9727 53.543 19.4609 54.4414 19.1016C55.3398 18.7422 56.3125 18.5625 57.3594 18.5625C58.1094 18.5625 58.8125 18.6758 59.4688 18.9023C60.125 19.1211 60.707 19.4336 61.2148 19.8398C61.7305 20.2383 62.1602 20.7188 62.5039 21.2812C62.8555 21.8359 63.1016 22.4492 63.2422 23.1211C63.3984 23.2539 63.5117 23.4297 63.582 23.6484C63.6602 23.8594 63.6992 24.0703 63.6992 24.2812C63.6992 24.6328 63.5781 24.9219 63.3359 25.1484C63.1016 25.3672 62.8047 25.5195 62.4453 25.6055C61.6562 25.8086 60.8672 25.9961 60.0781 26.168C59.2891 26.3398 58.4961 26.5078 57.6992 26.6719C56.9023 26.8359 56.0977 27.0039 55.2852 27.1758C54.4805 27.3477 53.668 27.5273 52.8477 27.7148ZM52.6484 25.5469C53.9766 25.2344 55.3203 24.9414 56.6797 24.668C58.0391 24.3945 59.4219 24.0898 60.8281 23.7539C60.6953 23.3945 60.5156 23.0547 60.2891 22.7344C60.0625 22.4062 59.7969 22.1211 59.4922 21.8789C59.1875 21.6367 58.8477 21.4453 58.4727 21.3047C58.1055 21.1641 57.707 21.0938 57.2773 21.0938C56.6133 21.0938 56.0078 21.2031 55.4609 21.4219C54.9219 21.6328 54.4531 21.9336 54.0547 22.3242C53.6562 22.707 53.3359 23.1758 53.0938 23.7305C52.8516 24.2773 52.7031 24.8828 52.6484 25.5469Z" fill="white"/>
<path d="M65.6141 32.2383C65.6141 31.9258 65.6141 31.5664 65.6141 31.1602C65.6141 30.7461 65.6102 30.3086 65.6023 29.8477C65.5945 29.1367 65.5906 28.375 65.5906 27.5625C65.5906 26.7422 65.5906 25.8984 65.5906 25.0312C65.5984 24.1641 65.6023 23.2812 65.6023 22.3828C65.6102 21.4766 65.6141 20.5781 65.6141 19.6875C65.6141 18.7969 65.6063 17.9258 65.5906 17.0742C65.5828 16.2148 65.5672 15.3945 65.5438 14.6133C65.4031 14.6055 65.2586 14.6172 65.1102 14.6484C64.9617 14.6719 64.7898 14.6836 64.5945 14.6836C64.4539 14.6836 64.3133 14.6602 64.1727 14.6133C64.0398 14.5664 63.9187 14.4922 63.8094 14.3906C63.7078 14.2812 63.6258 14.1445 63.5633 13.9805C63.5008 13.8164 63.4695 13.6172 63.4695 13.3828C63.4695 12.9688 63.575 12.6562 63.7859 12.4453C64.0047 12.2266 64.2703 12.1172 64.5828 12.1172C64.7078 12.1172 64.8289 12.1328 64.9461 12.1641C65.0633 12.1953 65.1883 12.2109 65.3211 12.2109C65.6336 12.2109 65.9422 12.1953 66.2469 12.1641C66.5594 12.1328 66.8914 12.1172 67.243 12.1172C67.5633 12.1172 67.8289 12.2266 68.0398 12.4453C68.2508 12.6562 68.3563 12.9492 68.3563 13.3242C68.3563 13.832 68.3523 14.3867 68.3445 14.9883C68.3367 15.582 68.325 16.1914 68.3094 16.8164C68.3016 17.4414 68.2938 18.0625 68.2859 18.6797C68.2781 19.2891 68.2703 19.8594 68.2625 20.3906C68.5203 20.1172 68.8172 19.8711 69.1531 19.6523C69.4891 19.4258 69.8563 19.2344 70.2547 19.0781C70.6531 18.9141 71.0711 18.7891 71.5086 18.7031C71.9461 18.6094 72.3953 18.5625 72.8563 18.5625C73.8953 18.5625 74.8445 18.7344 75.7039 19.0781C76.5711 19.4219 77.3133 19.9141 77.9305 20.5547C78.5477 21.1875 79.0242 21.957 79.3602 22.8633C79.7039 23.7617 79.8758 24.7656 79.8758 25.875C79.8758 27.1016 79.6883 28.1797 79.3133 29.1094C78.9461 30.0391 78.4305 30.8203 77.7664 31.4531C77.1023 32.0781 76.3094 32.5508 75.3875 32.8711C74.4734 33.1836 73.4656 33.3398 72.3641 33.3398C71.9578 33.3398 71.5555 33.3008 71.157 33.2227C70.7586 33.1445 70.3758 33.0352 70.0086 32.8945C69.6414 32.7461 69.2977 32.5742 68.9773 32.3789C68.657 32.1836 68.3719 31.9688 68.1219 31.7344V32.2266C68.1219 32.4297 68.075 32.5977 67.9813 32.7305C67.8875 32.8633 67.7703 32.9688 67.6297 33.0469C67.4891 33.125 67.3328 33.1758 67.1609 33.1992C66.9969 33.2305 66.8406 33.2461 66.6922 33.2461C66.3563 33.2461 66.0906 33.1797 65.8953 33.0469C65.7078 32.9219 65.6141 32.6523 65.6141 32.2383ZM68.0164 26.0391C68.0164 26.7812 68.1336 27.4492 68.368 28.043C68.6102 28.6289 68.9305 29.1289 69.3289 29.543C69.7273 29.9492 70.1805 30.2656 70.6883 30.4922C71.2039 30.7109 71.7352 30.8203 72.282 30.8203C72.9617 30.8203 73.5906 30.7266 74.1688 30.5391C74.7547 30.3516 75.2625 30.0586 75.6922 29.6602C76.1219 29.2617 76.4578 28.7539 76.7 28.1367C76.9422 27.5117 77.0633 26.7695 77.0633 25.9102C77.0633 25.168 76.9578 24.5 76.7469 23.9062C76.5438 23.3125 76.2469 22.8086 75.8563 22.3945C75.4656 21.9727 74.993 21.6523 74.4383 21.4336C73.8836 21.207 73.2547 21.0938 72.5516 21.0938C71.9578 21.0938 71.3875 21.2188 70.8406 21.4688C70.2938 21.7109 69.8094 22.0547 69.3875 22.5C68.9734 22.9375 68.6414 23.4609 68.3914 24.0703C68.1414 24.6719 68.0164 25.3281 68.0164 26.0391Z" fill="white"/>
<path d="M82.7047 31.957C82.7047 31.8008 82.7125 31.6445 82.7281 31.4883C82.7438 31.332 82.7555 31.1797 82.7633 31.0312L82.5641 21.3164H82.2008C82.0602 21.3164 81.9156 21.2969 81.7672 21.2578C81.6188 21.2188 81.482 21.1523 81.357 21.0586C81.2398 20.957 81.1422 20.8281 81.0641 20.6719C80.9859 20.5078 80.9469 20.3047 80.9469 20.0625C80.9469 19.6641 81.0563 19.3594 81.275 19.1484C81.5016 18.9297 81.7633 18.8203 82.0602 18.8203C82.1383 18.8203 82.2086 18.832 82.2711 18.8555C82.3336 18.8789 82.4078 18.8945 82.4938 18.9023C82.4859 18.7617 82.4742 18.6055 82.4586 18.4336C82.4508 18.2539 82.443 18.0781 82.4352 17.9062C82.4273 17.7266 82.4195 17.5586 82.4117 17.4023C82.4117 17.2383 82.4117 17.0977 82.4117 16.9805C82.4117 16.1211 82.5211 15.3867 82.7398 14.7773C82.9586 14.1602 83.2672 13.6562 83.6656 13.2656C84.0719 12.8672 84.5563 12.5781 85.1188 12.3984C85.6891 12.2109 86.3219 12.1172 87.0172 12.1172C87.6656 12.1172 88.2125 12.2031 88.6578 12.375C89.1031 12.5391 89.4625 12.7461 89.7359 12.9961C90.0172 13.2383 90.2164 13.5 90.3336 13.7812C90.4586 14.0625 90.5211 14.3164 90.5211 14.543C90.5211 14.9102 90.4 15.1953 90.1578 15.3984C89.9234 15.6016 89.6305 15.7031 89.2789 15.7031C89.0055 15.7031 88.7828 15.6445 88.6109 15.5273C88.4391 15.4023 88.2555 15.2344 88.0602 15.0234C87.9508 14.9062 87.7984 14.7891 87.6031 14.6719C87.4156 14.5469 87.1461 14.4844 86.7945 14.4844C86.1773 14.4844 85.7203 14.7461 85.4234 15.2695C85.1344 15.793 84.9898 16.5664 84.9898 17.5898C84.9898 17.6992 84.9977 17.8789 85.0133 18.1289C85.0289 18.3711 85.0484 18.6094 85.0719 18.8438C85.4703 18.8359 85.9078 18.832 86.3844 18.832C86.8688 18.832 87.4039 18.832 87.9898 18.832C88.3727 18.832 88.6617 18.9492 88.857 19.1836C89.0602 19.418 89.1617 19.6875 89.1617 19.9922C89.1617 20.1562 89.1305 20.3164 89.068 20.4727C89.0055 20.6289 88.9156 20.7695 88.7984 20.8945C88.6813 21.0195 88.5328 21.1211 88.3531 21.1992C88.1813 21.2773 87.982 21.3164 87.7555 21.3164H85.1891L85.2945 30.6211C85.4898 30.5742 85.6695 30.5195 85.8336 30.457C86.068 30.3789 86.2828 30.3125 86.4781 30.2578C86.6734 30.2031 86.8688 30.1758 87.0641 30.1758C87.1969 30.1758 87.3297 30.207 87.4625 30.2695C87.5953 30.3242 87.7125 30.4062 87.8141 30.5156C87.9234 30.625 88.0094 30.7578 88.0719 30.9141C88.1422 31.0625 88.1773 31.2266 88.1773 31.4062C88.1773 31.7031 88.0758 31.9688 87.8727 32.2031C87.6773 32.4375 87.3805 32.5977 86.982 32.6836C86.8258 32.7227 86.6461 32.7695 86.443 32.8242C86.2477 32.8711 86.0133 32.9336 85.7398 33.0117C85.4273 33.0977 85.1109 33.1719 84.7906 33.2344C84.4781 33.3047 84.2359 33.3398 84.0641 33.3398C83.9078 33.3398 83.7477 33.3203 83.5836 33.2812C83.4273 33.2422 83.2828 33.168 83.15 33.0586C83.025 32.957 82.9195 32.8203 82.8336 32.6484C82.7477 32.4688 82.7047 32.2383 82.7047 31.957Z" fill="white"/>
<path d="M90.2562 25.9688C90.2562 24.9062 90.4359 23.918 90.7953 23.0039C91.1547 22.0898 91.6469 21.2969 92.2719 20.625C92.9047 19.9531 93.643 19.4258 94.4867 19.043C95.3383 18.6602 96.2562 18.4688 97.2406 18.4688C97.7406 18.4688 98.2172 18.5273 98.6703 18.6445C99.1312 18.7617 99.557 18.918 99.9477 19.1133C100.346 19.3008 100.702 19.5156 101.014 19.7578C101.334 20 101.608 20.25 101.834 20.5078C101.827 20.3984 101.823 20.2812 101.823 20.1562C101.823 20.0312 101.823 19.9219 101.823 19.8281C101.823 19.6328 101.85 19.4531 101.905 19.2891C101.959 19.1172 102.045 18.9688 102.162 18.8438C102.28 18.7188 102.428 18.6211 102.608 18.5508C102.787 18.4727 103.006 18.4336 103.264 18.4336C103.483 18.4336 103.678 18.4766 103.85 18.5625C104.03 18.6406 104.182 18.7422 104.307 18.8672C104.432 18.9844 104.53 19.1133 104.6 19.2539C104.67 19.3867 104.705 19.5078 104.705 19.6172C104.705 19.8828 104.69 20.1523 104.659 20.4258C104.635 20.6914 104.616 20.9609 104.6 21.2344C104.6 22.0938 104.592 22.8555 104.577 23.5195C104.569 24.1758 104.557 24.7812 104.541 25.3359C104.526 25.7109 104.514 26.1016 104.506 26.5078C104.498 26.9062 104.495 27.2734 104.495 27.6094C104.495 28.3672 104.495 28.9688 104.495 29.4141C104.495 29.8594 104.514 30.1836 104.553 30.3867C104.623 30.3711 104.725 30.3359 104.858 30.2812C104.998 30.2266 105.127 30.168 105.245 30.1055C105.354 30.0664 105.463 30.0273 105.573 29.9883C105.682 29.9492 105.819 29.9297 105.983 29.9297C106.17 29.9297 106.334 29.9727 106.475 30.0586C106.616 30.1367 106.733 30.2422 106.827 30.375C106.928 30.5 107.002 30.6445 107.049 30.8086C107.096 30.9648 107.12 31.1172 107.12 31.2656C107.12 31.4766 107.069 31.6914 106.967 31.9102C106.866 32.1211 106.678 32.2734 106.405 32.3672C106.17 32.4531 105.932 32.543 105.69 32.6367C105.448 32.7305 105.202 32.8164 104.952 32.8945C104.709 32.9727 104.463 33.0391 104.213 33.0938C103.971 33.1484 103.721 33.1758 103.463 33.1758C103.159 33.1758 102.909 33.1133 102.713 32.9883C102.518 32.8633 102.366 32.7031 102.256 32.5078C102.147 32.3047 102.069 32.082 102.022 31.8398C101.975 31.5977 101.948 31.3594 101.94 31.125C101.698 31.4297 101.405 31.7148 101.061 31.9805C100.717 32.2461 100.338 32.4805 99.9242 32.6836C99.5102 32.8867 99.0648 33.0469 98.5883 33.1641C98.1195 33.2812 97.6352 33.3398 97.1352 33.3398C96.1195 33.3398 95.1898 33.1562 94.3461 32.7891C93.5023 32.4141 92.7758 31.8984 92.1664 31.2422C91.5648 30.5781 91.0961 29.7969 90.7602 28.8984C90.4242 28 90.2562 27.0234 90.2562 25.9688ZM92.9516 25.9688C92.9516 26.6016 93.0453 27.2109 93.2328 27.7969C93.4281 28.3828 93.7055 28.9023 94.0648 29.3555C94.432 29.8008 94.8812 30.1562 95.4125 30.4219C95.9437 30.6875 96.5453 30.8203 97.2172 30.8203C97.8812 30.8203 98.4828 30.6914 99.0219 30.4336C99.5609 30.1758 100.03 29.8398 100.428 29.4258C100.834 29.0117 101.166 28.5508 101.424 28.043C101.682 27.5273 101.858 27.0117 101.952 26.4961V25.4648C101.866 24.9883 101.702 24.4844 101.459 23.9531C101.225 23.4219 100.912 22.9336 100.522 22.4883C100.139 22.0352 99.6781 21.6641 99.1391 21.375C98.6 21.0781 97.9906 20.9297 97.3109 20.9297C96.6703 20.9297 96.0844 21.0625 95.5531 21.3281C95.0219 21.5859 94.5609 21.9453 94.1703 22.4062C93.7875 22.8594 93.4867 23.3906 93.268 24C93.057 24.6094 92.9516 25.2656 92.9516 25.9688Z" fill="white"/>
<path d="M107.195 25.9688C107.195 24.9062 107.37 23.9258 107.722 23.0273C108.081 22.1211 108.573 21.3398 109.198 20.6836C109.831 20.0195 110.577 19.5 111.437 19.125C112.296 18.75 113.23 18.5625 114.238 18.5625C114.691 18.5625 115.14 18.6094 115.585 18.7031C116.03 18.7891 116.452 18.9219 116.851 19.1016C117.257 19.2734 117.632 19.4883 117.976 19.7461C118.32 20.0039 118.62 20.3008 118.878 20.6367C118.878 20.4336 118.878 20.1445 118.878 19.7695C118.878 19.3945 118.874 18.9492 118.866 18.4336C118.866 17.918 118.863 17.3438 118.855 16.7109C118.847 16.0781 118.839 15.4062 118.831 14.6953H117.835C117.655 14.6953 117.48 14.7148 117.308 14.7539C117.136 14.793 116.952 14.8125 116.757 14.8125C116.616 14.8125 116.472 14.7812 116.323 14.7188C116.183 14.6484 116.054 14.5547 115.937 14.4375C115.827 14.3125 115.734 14.1641 115.655 13.9922C115.585 13.8125 115.55 13.6094 115.55 13.3828C115.55 12.9766 115.655 12.6641 115.866 12.4453C116.077 12.2266 116.343 12.1172 116.663 12.1172C116.741 12.1172 116.835 12.1211 116.945 12.1289C117.054 12.1289 117.179 12.1484 117.32 12.1875C117.835 12.1953 118.355 12.1914 118.878 12.1758C119.402 12.1523 119.964 12.1367 120.566 12.1289C120.894 12.1289 121.152 12.2422 121.339 12.4688C121.527 12.6953 121.62 12.9961 121.62 13.3711C121.62 13.6367 121.585 13.8438 121.515 13.9922C121.499 14.5 121.488 15.1289 121.48 15.8789C121.472 16.6211 121.464 17.4141 121.456 18.2578C121.448 19.1016 121.441 19.9609 121.433 20.8359C121.433 21.7109 121.429 22.5312 121.421 23.2969C121.421 24.0547 121.421 24.7266 121.421 25.3125C121.421 25.8984 121.421 26.3242 121.421 26.5898C121.421 27.3555 121.425 28.0469 121.433 28.6641C121.448 29.2734 121.472 29.7539 121.503 30.1055L121.714 29.9766C121.878 29.8828 122.034 29.8008 122.183 29.7305C122.339 29.6602 122.507 29.6172 122.687 29.6016C122.82 29.5859 122.956 29.6016 123.097 29.6484C123.238 29.6875 123.366 29.7578 123.484 29.8594C123.601 29.9531 123.698 30.082 123.777 30.2461C123.855 30.4102 123.894 30.6094 123.894 30.8438C123.894 31.1719 123.804 31.4375 123.624 31.6406C123.452 31.8359 123.273 31.9727 123.085 32.0508C122.898 32.1367 122.718 32.2266 122.546 32.3203C122.374 32.4062 122.198 32.4961 122.019 32.5898C121.753 32.7305 121.495 32.8633 121.245 32.9883C121.003 33.1133 120.788 33.1758 120.601 33.1758C120.226 33.1758 119.921 33 119.687 32.6484C119.46 32.2891 119.288 31.8125 119.171 31.2188C118.859 31.5391 118.503 31.8281 118.105 32.0859C117.706 32.3438 117.28 32.5664 116.827 32.7539C116.374 32.9414 115.898 33.0859 115.398 33.1875C114.905 33.2891 114.409 33.3398 113.909 33.3398C112.894 33.3398 111.972 33.1484 111.144 32.7656C110.323 32.3828 109.62 31.8594 109.034 31.1953C108.448 30.5312 107.995 29.7539 107.675 28.8633C107.355 27.9648 107.195 27 107.195 25.9688ZM109.808 25.9688C109.808 26.5859 109.905 27.1875 110.101 27.7734C110.296 28.3516 110.577 28.8672 110.945 29.3203C111.32 29.7734 111.773 30.1367 112.304 30.4102C112.835 30.6836 113.437 30.8203 114.109 30.8203C114.624 30.8203 115.14 30.7383 115.655 30.5742C116.171 30.4023 116.644 30.1641 117.073 29.8594C117.511 29.5469 117.89 29.1719 118.21 28.7344C118.53 28.2891 118.749 27.7891 118.866 27.2344C118.866 26.9141 118.866 26.6523 118.866 26.4492C118.866 26.2461 118.863 26.0742 118.855 25.9336C118.855 25.7852 118.855 25.6523 118.855 25.5352C118.855 25.4102 118.855 25.2695 118.855 25.1133C118.73 24.5508 118.527 24.0273 118.245 23.543C117.972 23.0508 117.636 22.625 117.238 22.2656C116.839 21.9062 116.39 21.625 115.89 21.4219C115.398 21.2109 114.874 21.1055 114.32 21.1055C113.671 21.1055 113.07 21.2227 112.515 21.457C111.968 21.6914 111.491 22.0234 111.085 22.4531C110.687 22.875 110.374 23.3867 110.148 23.9883C109.921 24.582 109.808 25.2422 109.808 25.9688Z" fill="white"/>
<path d="M123.77 25.9336C123.77 24.918 123.957 23.9648 124.332 23.0742C124.715 22.1758 125.234 21.3945 125.891 20.7305C126.555 20.0586 127.328 19.5312 128.211 19.1484C129.094 18.7578 130.039 18.5625 131.047 18.5625C132.148 18.5625 133.145 18.7578 134.035 19.1484C134.934 19.5312 135.699 20.0586 136.332 20.7305C136.973 21.3945 137.465 22.1758 137.809 23.0742C138.152 23.9648 138.324 24.918 138.324 25.9336C138.324 26.6758 138.234 27.375 138.055 28.0312C137.883 28.6875 137.637 29.2891 137.316 29.8359C136.996 30.3828 136.609 30.875 136.156 31.3125C135.711 31.7422 135.219 32.1094 134.68 32.4141C134.141 32.7109 133.562 32.9375 132.945 33.0938C132.336 33.2578 131.703 33.3398 131.047 33.3398C130.062 33.3398 129.129 33.1641 128.246 32.8125C127.363 32.4531 126.59 31.9531 125.926 31.3125C125.262 30.6641 124.734 29.8867 124.344 28.9805C123.961 28.0664 123.77 27.0508 123.77 25.9336ZM126.477 25.9336C126.477 26.6758 126.582 27.3477 126.793 27.9492C127.004 28.5508 127.305 29.0664 127.695 29.4961C128.094 29.918 128.574 30.2461 129.137 30.4805C129.699 30.707 130.332 30.8203 131.035 30.8203C131.66 30.8203 132.25 30.7148 132.805 30.5039C133.359 30.293 133.844 29.9844 134.258 29.5781C134.68 29.1641 135.012 28.6523 135.254 28.043C135.504 27.4336 135.629 26.7305 135.629 25.9336C135.629 25.2773 135.523 24.6562 135.312 24.0703C135.109 23.4766 134.812 22.9609 134.422 22.5234C134.031 22.0859 133.551 21.7383 132.98 21.4805C132.41 21.2227 131.762 21.0938 131.035 21.0938C130.309 21.0938 129.664 21.2227 129.102 21.4805C128.539 21.7383 128.062 22.0859 127.672 22.5234C127.281 22.9609 126.984 23.4766 126.781 24.0703C126.578 24.6562 126.477 25.2773 126.477 25.9336Z" fill="white"/>
<path d="M141.118 32.1328C141.118 31.9922 141.122 31.8477 141.13 31.6992C141.145 31.5508 141.161 31.4062 141.177 31.2656C141.2 31.0547 141.223 30.8242 141.247 30.5742C141.27 30.3242 141.282 30.043 141.282 29.7305C141.282 29.1211 141.278 28.5469 141.27 28.0078C141.27 27.4609 141.262 26.8984 141.247 26.3203C141.247 26.3047 141.247 26.2812 141.247 26.25C141.247 26.2109 141.243 26.1367 141.235 26.0273C141.235 25.918 141.231 25.7578 141.223 25.5469C141.223 25.3359 141.22 25.0391 141.212 24.6562C141.204 24.2734 141.192 23.7969 141.177 23.2266C141.169 22.6484 141.157 21.9453 141.141 21.1172C141.04 21.1328 140.919 21.1484 140.778 21.1641C140.645 21.1719 140.485 21.1758 140.298 21.1758C140.157 21.1758 140.012 21.1523 139.864 21.1055C139.723 21.0586 139.591 20.9883 139.466 20.8945C139.348 20.793 139.251 20.6641 139.173 20.5078C139.102 20.3438 139.067 20.1445 139.067 19.9102C139.067 19.4883 139.173 19.1719 139.384 18.9609C139.602 18.7422 139.868 18.6328 140.18 18.6328C140.305 18.6328 140.427 18.6484 140.544 18.6797C140.661 18.7109 140.786 18.7266 140.919 18.7266C141.075 18.7266 141.235 18.7227 141.399 18.7148C141.563 18.707 141.723 18.6953 141.88 18.6797C142.052 18.6641 142.22 18.6523 142.384 18.6445C142.555 18.6367 142.708 18.6328 142.841 18.6328C143.161 18.6328 143.427 18.7383 143.637 18.9492C143.848 19.1602 143.954 19.457 143.954 19.8398C143.954 19.9336 143.95 20.043 143.942 20.168C143.942 20.293 143.934 20.4141 143.919 20.5312C144.184 20.2734 144.485 20.0273 144.821 19.793C145.157 19.5586 145.52 19.3516 145.911 19.1719C146.309 18.9844 146.735 18.8359 147.188 18.7266C147.641 18.6172 148.122 18.5625 148.63 18.5625C149.622 18.5625 150.489 18.7266 151.231 19.0547C151.981 19.375 152.606 19.8438 153.106 20.4609C153.614 21.0703 153.993 21.8203 154.243 22.7109C154.501 23.6016 154.63 24.6133 154.63 25.7461C154.63 26.0898 154.606 26.4492 154.559 26.8242C154.512 27.1992 154.446 27.5742 154.36 27.9492C154.282 28.3242 154.184 28.6992 154.067 29.0742C153.958 29.4414 153.833 29.7891 153.692 30.1172C153.872 30.0625 154.044 30.0156 154.208 29.9766C154.372 29.9375 154.509 29.9102 154.618 29.8945C155.493 29.8086 155.93 30.207 155.93 31.0898C155.93 31.1992 155.919 31.3203 155.895 31.4531C155.872 31.5781 155.825 31.7031 155.755 31.8281C155.684 31.9453 155.587 32.0586 155.462 32.168C155.337 32.2695 155.177 32.3555 154.981 32.4258L153.716 32.7188C153.325 32.8359 153.009 32.9336 152.766 33.0117C152.532 33.0977 152.333 33.1641 152.169 33.2109C152.012 33.2656 151.88 33.3008 151.77 33.3164C151.661 33.3398 151.54 33.3477 151.407 33.3398C151.22 33.3398 151.055 33.293 150.915 33.1992C150.774 33.1133 150.657 33.0039 150.563 32.8711C150.47 32.7305 150.399 32.5781 150.352 32.4141C150.305 32.25 150.282 32.0898 150.282 31.9336C150.282 31.6836 150.317 31.4297 150.387 31.1719C150.458 30.9141 150.583 30.6797 150.762 30.4688C150.981 30.1875 151.165 29.8711 151.313 29.5195C151.47 29.168 151.595 28.7891 151.688 28.3828C151.782 27.9766 151.848 27.5508 151.887 27.1055C151.934 26.6602 151.958 26.207 151.958 25.7461C151.958 25.2148 151.899 24.6758 151.782 24.1289C151.673 23.5742 151.481 23.0742 151.208 22.6289C150.942 22.1758 150.587 21.8086 150.141 21.5273C149.704 21.2383 149.153 21.0938 148.489 21.0938C148.028 21.0938 147.575 21.168 147.13 21.3164C146.692 21.457 146.27 21.6484 145.864 21.8906C145.466 22.125 145.091 22.3945 144.739 22.6992C144.387 23.0039 144.079 23.3164 143.813 23.6367C143.805 23.9883 143.798 24.3438 143.79 24.7031C143.79 25.0547 143.79 25.4102 143.79 25.7695C143.774 26.3789 143.762 26.9844 143.755 27.5859C143.747 28.1875 143.743 28.7969 143.743 29.4141C143.743 29.5938 143.743 29.7773 143.743 29.9648C143.743 30.1445 143.751 30.3359 143.766 30.5391L144.083 30.4453C144.169 30.4219 144.251 30.4023 144.329 30.3867C144.415 30.3633 144.489 30.3516 144.552 30.3516C144.973 30.3516 145.294 30.457 145.512 30.668C145.731 30.8711 145.841 31.1719 145.841 31.5703C145.841 31.8672 145.782 32.1055 145.665 32.2852C145.548 32.457 145.399 32.5938 145.22 32.6953C145.04 32.7891 144.841 32.8555 144.622 32.8945C144.411 32.9336 144.204 32.9648 144.001 32.9883C143.891 33.0039 143.786 33.0156 143.684 33.0234C143.583 33.0391 143.497 33.0586 143.427 33.082C143.177 33.1523 142.962 33.2109 142.782 33.2578C142.602 33.3125 142.446 33.3398 142.313 33.3398C141.852 33.3398 141.536 33.2344 141.364 33.0234C141.2 32.8125 141.118 32.5156 141.118 32.1328Z" fill="white"/>
<path d="M160.658 16.8516C160.47 16.9375 160.275 16.9805 160.072 16.9805C159.869 16.9727 159.681 16.9297 159.509 16.8516C159.345 16.7656 159.201 16.6445 159.076 16.4883C158.951 16.332 158.873 16.1445 158.841 15.9258C158.818 15.7773 158.822 15.6094 158.853 15.4219C158.892 15.2266 158.939 15.0312 158.994 14.8359C159.056 14.6328 159.111 14.4375 159.158 14.25C159.213 14.0547 159.248 13.8789 159.263 13.7227C159.287 13.3711 159.392 13.0781 159.58 12.8438C159.767 12.6094 160.048 12.4648 160.423 12.4102C160.697 12.3633 160.955 12.3789 161.197 12.457C161.439 12.5352 161.619 12.707 161.736 12.9727C161.775 13.0586 161.806 13.1602 161.83 13.2773C161.861 13.3867 161.884 13.4844 161.9 13.5703C161.908 13.6484 161.904 13.7461 161.888 13.8633C161.88 13.9805 161.861 14.1055 161.83 14.2383C161.798 14.3633 161.759 14.4922 161.713 14.625C161.673 14.75 161.634 14.8594 161.595 14.9531C161.533 15.0859 161.49 15.2305 161.466 15.3867C161.451 15.5352 161.431 15.6719 161.408 15.7969C161.384 15.9219 161.361 16.0352 161.338 16.1367C161.314 16.2383 161.275 16.332 161.22 16.418C161.173 16.5039 161.103 16.582 161.009 16.6523C160.923 16.7227 160.806 16.7891 160.658 16.8516ZM158.654 32.1211C158.654 31.9258 158.662 31.7617 158.677 31.6289C158.701 31.4961 158.72 31.3516 158.736 31.1953C158.759 31.0312 158.779 30.8398 158.795 30.6211C158.818 30.4023 158.83 30.1055 158.83 29.7305C158.83 28.332 158.826 26.9453 158.818 25.5703C158.81 24.1875 158.791 22.7266 158.759 21.1875C158.642 21.1953 158.509 21.2031 158.361 21.2109C158.213 21.2188 158.056 21.2266 157.892 21.2344C157.736 21.2344 157.584 21.2383 157.435 21.2461C157.287 21.2461 157.154 21.2461 157.037 21.2461C156.896 21.2461 156.752 21.2266 156.603 21.1875C156.463 21.1406 156.334 21.0664 156.216 20.9648C156.099 20.8633 156.002 20.7344 155.923 20.5781C155.845 20.4141 155.806 20.2148 155.806 19.9805C155.806 19.5664 155.916 19.2539 156.134 19.043C156.361 18.8242 156.627 18.7148 156.931 18.7148C157.228 18.7148 157.521 18.7305 157.81 18.7617C158.107 18.7852 158.396 18.7969 158.677 18.7969C158.966 18.7969 159.255 18.7852 159.545 18.7617C159.834 18.7305 160.107 18.7148 160.365 18.7148C160.763 18.7148 161.048 18.8203 161.22 19.0312C161.392 19.2422 161.478 19.5352 161.478 19.9102C161.478 20.2305 161.451 20.5469 161.396 20.8594C161.341 21.1641 161.314 21.4922 161.314 21.8438C161.314 22.5469 161.31 23.2539 161.302 23.9648C161.295 24.6758 161.287 25.3984 161.279 26.1328C161.279 26.8672 161.275 27.6172 161.267 28.3828C161.267 29.1484 161.275 29.9375 161.291 30.75C161.416 30.7422 161.529 30.7227 161.63 30.6914C161.732 30.6602 161.83 30.6289 161.923 30.5977C162.017 30.5586 162.115 30.5273 162.216 30.5039C162.326 30.4727 162.447 30.457 162.58 30.457C162.783 30.457 162.947 30.4805 163.072 30.5273C163.205 30.5742 163.31 30.6406 163.388 30.7266C163.466 30.8047 163.525 30.9062 163.564 31.0312C163.603 31.1484 163.638 31.2773 163.67 31.418C163.724 31.7852 163.634 32.0781 163.4 32.2969C163.166 32.5156 162.845 32.6875 162.439 32.8125C162.205 32.875 161.963 32.9375 161.713 33C161.47 33.0625 161.24 33.1172 161.021 33.1641C160.802 33.2188 160.603 33.2617 160.423 33.293C160.244 33.3242 160.103 33.3398 160.002 33.3398C159.541 33.3398 159.201 33.2305 158.982 33.0117C158.763 32.8008 158.654 32.5039 158.654 32.1211Z" fill="white"/>
<circle cx="24" cy="24" r="24" fill="#3A2626"/>
<circle cx="24" cy="25" r="23" fill="#ED0678"/>
<path d="M14.3556 34.954C12.5824 30.4428 11.1578 26.8921 10.0817 24.3021C9.00552 21.7 8.24122 19.9976 7.78876 19.1951V19.2133C7.58087 18.8607 7.39744 18.4716 7.23846 18.046C7.07949 17.6082 7 17.2556 7 16.9881C7 16.6598 7.06726 16.374 7.20178 16.1308C7.33629 15.8755 7.5075 15.6688 7.71538 15.5107C7.9355 15.3405 8.17396 15.2128 8.43077 15.1277C8.68757 15.0426 8.93826 15 9.18284 15C9.52525 15 9.80039 15.0426 10.0083 15.1277C10.2284 15.2128 10.4057 15.3344 10.5402 15.4925C10.687 15.6505 10.8093 15.8451 10.9071 16.0761C11.0049 16.295 11.1089 16.5504 11.2189 16.8422C12.2584 19.2012 13.2489 21.5905 14.1905 24.0103C15.1322 26.4179 16.1288 28.9046 17.1805 31.4703C17.4373 30.8015 17.6819 30.1388 17.9142 29.4822C18.1465 28.8255 18.3972 28.1324 18.6663 27.4029C18.972 26.5638 19.2655 25.7491 19.5467 24.9588C19.828 24.1562 20.1215 23.3658 20.4272 22.5876C20.1826 22.004 19.932 21.4264 19.6751 20.8549C19.4183 20.2712 19.1371 19.6936 18.8314 19.1221C18.6235 18.7573 18.4645 18.3986 18.3544 18.046C18.2566 17.6812 18.2077 17.359 18.2077 17.0793C18.2077 16.751 18.2627 16.4592 18.3728 16.2038C18.4828 15.9485 18.6296 15.7296 18.813 15.5472C19.0087 15.3648 19.2227 15.231 19.455 15.1459C19.6996 15.0486 19.9503 15 20.2071 15C20.5495 15 20.8369 15.0608 21.0692 15.1824C21.3016 15.2918 21.4972 15.4438 21.6562 15.6384C21.8152 15.8208 21.9497 16.0336 22.0598 16.2768C22.1698 16.52 22.2738 16.7692 22.3716 17.0246C22.3961 17.0975 22.4144 17.1583 22.4266 17.207C22.4511 17.2556 22.4817 17.3225 22.5183 17.4076L22.6101 17.1523C22.7201 16.8969 22.8424 16.6416 22.9769 16.3862C23.1114 16.1187 23.2704 15.8877 23.4538 15.6931C23.6495 15.4864 23.8696 15.3222 24.1142 15.2006C24.3588 15.0669 24.6462 15 24.9763 15C25.2209 15 25.4594 15.0426 25.6917 15.1277C25.9363 15.2128 26.1564 15.3405 26.3521 15.5107C26.5477 15.6809 26.7006 15.8877 26.8107 16.1308C26.9329 16.374 26.9941 16.6476 26.9941 16.9516C26.9941 17.2678 26.9329 17.5535 26.8107 17.8089C26.7006 18.0642 26.5783 18.3074 26.4438 18.5385L24.6278 22.6423L28.1864 31.4703L32.974 18.6844C33.0596 18.3196 33.1635 17.9244 33.2858 17.4988C33.4081 17.0732 33.5732 16.678 33.7811 16.3132C33.989 15.9363 34.2519 15.6262 34.5698 15.383C34.9 15.1277 35.3097 15 35.7988 15C36.129 15 36.4286 15.0608 36.6976 15.1824C36.9667 15.2918 37.199 15.4377 37.3947 15.6201C37.5903 15.8025 37.7371 16.0153 37.8349 16.2585C37.945 16.4896 38 16.7206 38 16.9516C38 17.2313 37.9572 17.4867 37.8716 17.7177C37.786 17.9366 37.6821 18.1554 37.5598 18.3743C37.4497 18.581 37.3213 18.7877 37.1746 18.9944C37.04 19.189 36.9178 19.4018 36.8077 19.6328C36.7343 19.7787 36.6304 20.0159 36.4959 20.3442C36.3736 20.6725 36.2207 21.0677 36.0373 21.5297C35.8538 21.9918 35.6521 22.5025 35.432 23.0619C35.2241 23.6212 35.0039 24.1988 34.7716 24.7946C34.4903 25.5363 34.1907 26.3024 33.8728 27.0928C33.5671 27.8832 33.2613 28.6675 32.9556 29.4457C32.6499 30.2239 32.3442 30.9778 32.0385 31.7074C31.745 32.4248 31.4698 33.0814 31.213 33.6772C31.0418 34.0542 30.9073 34.3947 30.8095 34.6987C30.7116 34.9905 30.626 35.2762 30.5527 35.5559C30.4304 35.9329 30.3142 36.2733 30.2041 36.5773C30.0941 36.8692 29.9535 37.1245 29.7822 37.3434C29.6233 37.5501 29.4093 37.7082 29.1402 37.8176C28.8834 37.9392 28.5471 38 28.1314 38C27.6178 38 27.1408 37.7386 26.7006 37.2157C26.2604 36.6928 25.8201 35.9025 25.3799 34.8446C24.903 33.6529 24.4444 32.4552 24.0041 31.2514C23.5639 30.0476 23.087 28.8195 22.5734 27.567C22.0598 28.8803 21.5278 30.1813 20.9775 31.4703C20.4394 32.7592 19.9564 34.115 19.5284 35.5377C19.4183 35.866 19.3022 36.1821 19.1799 36.4861C19.0698 36.778 18.9231 37.0394 18.7396 37.2704C18.5684 37.4893 18.3544 37.6656 18.0976 37.7994C17.8531 37.9331 17.5473 38 17.1805 38C16.887 38 16.6179 37.9453 16.3734 37.8358C16.1288 37.7264 15.8964 37.5501 15.6763 37.3069C15.4562 37.0515 15.2361 36.7354 15.016 36.3584C14.8081 35.9693 14.588 35.5012 14.3556 34.954Z" fill="#120C0C" fill-opacity="0.47"/>
<path d="M15.3556 33.954C13.5824 29.4428 12.1578 25.8921 11.0817 23.3021C10.0055 20.7 9.24122 18.9976 8.78876 18.1951V18.2133C8.58087 17.8607 8.39744 17.4716 8.23846 17.046C8.07949 16.6082 8 16.2556 8 15.9881C8 15.6598 8.06726 15.374 8.20178 15.1308C8.33629 14.8755 8.5075 14.6688 8.71538 14.5107C8.9355 14.3405 9.17396 14.2128 9.43077 14.1277C9.68757 14.0426 9.93826 14 10.1828 14C10.5252 14 10.8004 14.0426 11.0083 14.1277C11.2284 14.2128 11.4057 14.3344 11.5402 14.4925C11.687 14.6505 11.8093 14.8451 11.9071 15.0761C12.0049 15.295 12.1089 15.5504 12.2189 15.8422C13.2584 18.2012 14.2489 20.5905 15.1905 23.0103C16.1322 25.4179 17.1288 27.9046 18.1805 30.4703C18.4373 29.8015 18.6819 29.1388 18.9142 28.4822C19.1465 27.8255 19.3972 27.1324 19.6663 26.4029C19.972 25.5638 20.2655 24.7491 20.5467 23.9588C20.828 23.1562 21.1215 22.3658 21.4272 21.5876C21.1826 21.004 20.932 20.4264 20.6751 19.8549C20.4183 19.2712 20.1371 18.6936 19.8314 18.1221C19.6235 17.7573 19.4645 17.3986 19.3544 17.046C19.2566 16.6812 19.2077 16.359 19.2077 16.0793C19.2077 15.751 19.2627 15.4592 19.3728 15.2038C19.4828 14.9485 19.6296 14.7296 19.813 14.5472C20.0087 14.3648 20.2227 14.231 20.455 14.1459C20.6996 14.0486 20.9503 14 21.2071 14C21.5495 14 21.8369 14.0608 22.0692 14.1824C22.3016 14.2918 22.4972 14.4438 22.6562 14.6384C22.8152 14.8208 22.9497 15.0336 23.0598 15.2768C23.1698 15.52 23.2738 15.7692 23.3716 16.0246C23.3961 16.0975 23.4144 16.1583 23.4266 16.207C23.4511 16.2556 23.4817 16.3225 23.5183 16.4076L23.6101 16.1523C23.7201 15.8969 23.8424 15.6416 23.9769 15.3862C24.1114 15.1187 24.2704 14.8877 24.4538 14.6931C24.6495 14.4864 24.8696 14.3222 25.1142 14.2006C25.3588 14.0669 25.6462 14 25.9763 14C26.2209 14 26.4594 14.0426 26.6917 14.1277C26.9363 14.2128 27.1564 14.3405 27.3521 14.5107C27.5477 14.6809 27.7006 14.8877 27.8107 15.1308C27.9329 15.374 27.9941 15.6476 27.9941 15.9516C27.9941 16.2678 27.9329 16.5535 27.8107 16.8089C27.7006 17.0642 27.5783 17.3074 27.4438 17.5385L25.6278 21.6423L29.1864 30.4703L33.974 17.6844C34.0596 17.3196 34.1635 16.9244 34.2858 16.4988C34.4081 16.0732 34.5732 15.678 34.7811 15.3132C34.989 14.9363 35.2519 14.6262 35.5698 14.383C35.9 14.1277 36.3097 14 36.7988 14C37.129 14 37.4286 14.0608 37.6976 14.1824C37.9667 14.2918 38.199 14.4377 38.3947 14.6201C38.5903 14.8025 38.7371 15.0153 38.8349 15.2585C38.945 15.4896 39 15.7206 39 15.9516C39 16.2313 38.9572 16.4867 38.8716 16.7177C38.786 16.9366 38.6821 17.1554 38.5598 17.3743C38.4497 17.581 38.3213 17.7877 38.1746 17.9944C38.04 18.189 37.9178 18.4018 37.8077 18.6328C37.7343 18.7787 37.6304 19.0159 37.4959 19.3442C37.3736 19.6725 37.2207 20.0677 37.0373 20.5297C36.8538 20.9918 36.6521 21.5025 36.432 22.0619C36.2241 22.6212 36.0039 23.1988 35.7716 23.7946C35.4903 24.5363 35.1907 25.3024 34.8728 26.0928C34.5671 26.8832 34.2613 27.6675 33.9556 28.4457C33.6499 29.2239 33.3442 29.9778 33.0385 30.7074C32.745 31.4248 32.4698 32.0814 32.213 32.6772C32.0418 33.0542 31.9073 33.3947 31.8095 33.6987C31.7116 33.9905 31.626 34.2762 31.5527 34.5559C31.4304 34.9329 31.3142 35.2733 31.2041 35.5773C31.0941 35.8692 30.9535 36.1245 30.7822 36.3434C30.6233 36.5501 30.4093 36.7082 30.1402 36.8176C29.8834 36.9392 29.5471 37 29.1314 37C28.6178 37 28.1408 36.7386 27.7006 36.2157C27.2604 35.6928 26.8201 34.9025 26.3799 33.8446C25.903 32.6529 25.4444 31.4552 25.0041 30.2514C24.5639 29.0476 24.087 27.8195 23.5734 26.567C23.0598 27.8803 22.5278 29.1813 21.9775 30.4703C21.4394 31.7592 20.9564 33.115 20.5284 34.5377C20.4183 34.866 20.3022 35.1821 20.1799 35.4861C20.0698 35.778 19.9231 36.0394 19.7396 36.2704C19.5684 36.4893 19.3544 36.6656 19.0976 36.7994C18.8531 36.9331 18.5473 37 18.1805 37C17.887 37 17.6179 36.9453 17.3734 36.8358C17.1288 36.7264 16.8964 36.5501 16.6763 36.3069C16.4562 36.0515 16.2361 35.7354 16.016 35.3584C15.8081 34.9693 15.588 34.5012 15.3556 33.954Z" fill="white"/>
</svg>
